<?xml version="1.0" encoding="utf-8"?>
<svg xmlns="http://www.w3.org/2000/svg" viewBox="0 0 50 50" width="100" height="100">
  <path d="M39 6c-5.514 0-10 3.813-10 8.5 0 1.806.641 3.504 1.858 4.943-.472 1.852-1.473 2.765-1.513 2.801-.315.272-.429.714-.283 1.104C29.209 23.74 29.582 24 30 24c2.645 0 4.558-.39 6.301-1.293C37.224 22.907 38.307 23 39 23c5.514 0 10-3.813 10-8.5S44.514 6 39 6zM40 18c0 .553-.447 1-1 1s-1-.447-1-1v-4c0-.553.447-1 1-1s1 .447 1 1V18zM39 12c-.552 0-1-.448-1-1 0-.552.448-1 1-1s1 .448 1 1C40 11.552 39.552 12 39 12zM25.526 34.383C24.521 33.992 23 33.402 23 33v-2.386c1.888-1.5 3-3.904 3-6.541v-3.829C26 15.621 22.486 12 18 12s-8 3.621-8 8.244v3.829c0 2.637 1.112 5.041 3 6.541V33c0 .37-1.566.989-2.502 1.359C7.513 35.539 3 37.322 3 43c0 .553.447 1 1 1h28c.553 0 1-.447 1-1C33 37.285 28.502 35.538 25.526 34.383z" fill="#DFFFDF" />
</svg>