<?xml version="1.0" encoding="utf-8"?>
<svg xmlns="http://www.w3.org/2000/svg" viewBox="0 0 30 30" width="60" height="60">
  <path d="M15 1C14.74425 1 14.488469 1.0974687 14.292969 1.2929688L7.5859375 8L10.414062 8L15 3.4140625L19.585938 8L22.414062 8L15.707031 1.2929688C15.511531 1.0974687 15.25575 1 15 1 z M 3 10C2.448 10 2 10.448 2 11L2 13C2 13.552 2.448 14 3 14L3.1660156 14L4.7207031 23.328125C4.8817031 24.292125 5.7163594 25 6.6933594 25L19 25L19 18C19 16.346 20.346 15 22 15C22.658 15 23.295312 15.22 23.820312 15.625C23.825312 15.629 23.830938 15.632719 23.835938 15.636719L26.271484 17.371094L26.833984 14L27 14C27.552 14 28 13.552 28 13L28 11C28 10.448 27.552 10 27 10L3 10 z M 22.015625 16.988281 A 1.0001 1.0001 0 0 0 21 18.095703L21 27C21 27.552 21.448 28 22 28C22.288 28 22.542609 27.874688 22.724609 27.679688L22.730469 27.681641L24.611328 25.458984L26.605469 29.447266 A 1.0001163 1.0001163 0 1 0 28.394531 28.552734L26.359375 24.484375L29.275391 23.960938L29.277344 23.943359C29.691344 23.822359 30 23.454 30 23C30 22.651 29.809109 22.358687 29.537109 22.179688L29.541016 22.160156L22.701172 17.28125 A 1.0001 1.0001 0 0 0 22.015625 16.988281 z" fill="#DFFFDF" />
</svg>