<?xml version="1.0" encoding="utf-8"?>
<svg xmlns="http://www.w3.org/2000/svg" viewBox="0 0 30 30" width="60" height="60">
  <path d="M15 2L10 7L20 7L15 2 z M 7.6171875 4C6.8531875 4 6.168125 4.4244687 5.828125 5.1054688L4 8.7636719L4 12L4 24C4 25.105 4.895 26 6 26L24 26C25.105 26 26 25.105 26 24L26 12L26 9L26 8.7636719L24.171875 5.1054688C23.831875 4.4234688 23.146812 4 22.382812 4L19.828125 4L21.828125 6L22.382812 6L23.882812 9L6.1171875 9L7.6171875 6L8.171875 6L10.171875 4L7.6171875 4 z M 12 11L18 11C18.552 11 19 11.448 19 12C19 12.552 18.552 13 18 13L12 13C11.448 13 11 12.552 11 12C11 11.448 11.448 11 12 11 z" fill="#DFFFDF" />
</svg>